<svg width="3232" height="721" viewBox="0 0 3232 721" fill="none" xmlns="http://www.w3.org/2000/svg">
<path d="M652 71C634.33 83.7741 617.304 97.4311 601.005 111.919C568.783 140.924 539.192 173.296 511.142 206.354C494.897 225.595 477.555 245.933 464.639 267.669C443.165 303.804 444.744 349.039 465.433 384.932C492.643 432.14 538.625 449.696 588.464 463.029C563.06 486.233 536.854 514.823 510.825 539.361C504.497 534.463 480.301 510.712 473.747 504.083C450.125 480.195 423.28 455.691 400.107 431.684C397.144 428.989 396.136 428.007 393.666 424.841C377.68 411.381 351.86 384.456 336.278 369.241L332.835 367.179C329.353 369.321 331.191 380.195 330.582 384.893C331.142 416.454 329.281 454.594 331.017 485.235C284.872 479.247 235.278 483.058 202.072 519.841C199.616 522.561 190.448 535.154 188.497 536.506L189.405 538.942C194.496 540.667 203.067 545.157 208.166 547.579C221.073 553.711 233.631 560.216 246.808 565.821C249.001 561.606 251.686 558.038 254.964 554.341C267.955 537.528 308.039 531.749 323.245 547.627C347.958 573.432 302.756 603.453 286.946 616.653C259.993 639.158 234.581 656.512 209.396 680.111C196.411 692.284 194.771 704.096 194.829 720.441C131.054 721.597 64.0396 720.608 0 720.567C7.07974 709.098 13.9412 695.719 20.9014 683.856C36.7601 656.872 53.2561 630.266 70.3751 604.064C187.604 426.282 336.286 260.244 516.842 145.371C547.724 125.505 579.517 107.099 612.119 90.2105C624.964 83.5512 638.57 76.1254 652 71Z" fill="#4B33C7"/>
<path d="M541.444 310.599C541.539 310.509 541.632 310.42 541.727 310.331C612.736 261.345 696.514 229.376 783.003 225.035C801.181 224.123 817.326 225.574 833.42 226.743C836.617 227.504 836.927 226.948 838.224 228.94C835.32 240.298 830.742 251.219 827.871 261.953C824.189 275.706 820.297 292.333 817.619 306.241C803.784 377.539 805.232 450.961 821.862 521.659C824.85 534.778 829.738 555.381 834.667 567.357C830.692 563.298 808.588 542.115 806.763 538.978C802.411 536.143 782.559 517.903 776.056 512.706C751.71 493.25 733.565 481.846 706.498 466.868C701.686 465.043 696.53 462.168 691.919 459.762C692.153 432.026 691.408 403.39 692.086 375.825C691.869 372.489 692.337 369.668 690.521 367.603L688.161 367.966C685.265 372.259 665.94 390.791 661.429 394.824C648.992 405.96 633.785 422.145 621.089 432.445C617.641 431.488 611.673 430.02 608.518 428.793C585.7 423.014 556.501 412.837 537.993 398.209C527.529 391.235 513.789 376.641 507.6 365.741C504.527 361.566 502.495 357.114 500.191 352.487C499.744 351.026 498.68 348.419 499.119 347.298C504.081 334.633 530.935 317.714 541.444 310.599Z" fill="#9C87DF"/>
<path d="M977.951 0.193379L990.488 0C981.859 6.32368 971.691 17.8049 963.991 25.6681C917.65 72.9936 858.477 171.612 836.712 233.141C829.757 232.122 764.583 256.534 757.603 255.743C645.846 270.812 508.138 367.5 499.767 351.176C491.395 334.852 486.956 323.53 486.228 303.015C485.5 282.5 527.606 230.824 556.5 199C666.049 78.3469 812.631 7.39772 977.951 0.193379Z" fill="#9C87DF"/>
<path d="M407.048 537C416.126 547.048 428.011 558.453 437.692 568.179C457.737 588.139 477.663 608.216 497.473 628.412C502.419 632.017 505.221 634.076 510.674 636.995C518.754 632.55 524.95 626.363 531.569 619.988C556.66 593.643 589.774 563.515 612.731 537.393C612.598 597.752 613.557 660.583 612.49 720.628C594.714 721.023 409.728 721.367 408.001 720.201C406.892 711.797 407.625 678.91 407.662 668.669L374.326 668.576C357.889 669.021 341.492 668.308 325 668.937C346.368 653.705 376.737 630.369 392.715 609.784C407.901 590.22 410.604 561.201 407.048 537Z" fill="#32176A"/>
<path d="M691 506C699.274 511.804 707.49 516.063 715.815 522.514C721.659 526.075 728.319 531.874 733.944 536.09C784.952 574.335 828.342 621.466 864.744 673.609C869.184 679.979 883.404 700.23 886.868 707.136C888.373 708.645 894.453 718.435 896 720.841L691.042 721L691 506Z" fill="#32176A"/>
<path d="M1086.22 435V396.997L1175.01 314.779C1182.57 307.471 1188.9 300.894 1194.02 295.047C1199.21 289.201 1203.15 283.476 1205.83 277.873C1208.51 272.189 1209.85 266.058 1209.85 259.48C1209.85 252.172 1208.19 245.879 1204.86 240.601C1201.53 235.241 1196.98 231.141 1191.21 228.299C1185.45 225.375 1178.91 223.914 1171.6 223.914C1163.97 223.914 1157.31 225.457 1151.63 228.542C1145.94 231.628 1141.56 236.053 1138.47 241.819C1135.39 247.584 1133.84 254.446 1133.84 262.404H1083.78C1083.78 246.082 1087.48 231.912 1094.87 219.894C1102.26 207.876 1112.61 198.578 1125.93 192.001C1139.24 185.424 1154.59 182.135 1171.97 182.135C1189.83 182.135 1205.38 185.302 1218.62 191.636C1231.94 197.888 1242.29 206.577 1249.68 217.702C1257.07 228.826 1260.76 241.575 1260.76 255.948C1260.76 265.368 1258.9 274.665 1255.16 283.841C1251.51 293.017 1244.97 303.208 1235.55 314.414C1226.13 325.539 1212.85 338.897 1195.72 354.488L1159.3 390.176V391.881H1264.05V435H1086.22ZM1303.73 185.545H1368.77L1437.47 353.148H1440.39L1509.09 185.545H1574.14V435H1522.98V272.635H1520.91L1456.35 433.782H1421.52L1356.96 272.026H1354.89V435H1303.73V185.545ZM1752.91 257.288C1751.94 247.462 1747.76 239.829 1740.37 234.389C1732.98 228.948 1722.95 226.228 1710.28 226.228C1701.67 226.228 1694.41 227.446 1688.48 229.882C1682.55 232.237 1678 235.526 1674.84 239.748C1671.75 243.971 1670.21 248.762 1670.21 254.121C1670.05 258.587 1670.98 262.485 1673.01 265.814C1675.12 269.144 1678 272.026 1681.66 274.462C1685.31 276.817 1689.53 278.888 1694.33 280.674C1699.12 282.38 1704.23 283.841 1709.67 285.059L1732.09 290.419C1742.97 292.855 1752.95 296.103 1762.05 300.163C1771.14 304.223 1779.02 309.217 1785.68 315.145C1792.34 321.073 1797.49 328.056 1801.15 336.095C1804.88 344.134 1806.79 353.351 1806.87 363.745C1806.79 379.011 1802.89 392.247 1795.18 403.453C1787.55 414.578 1776.5 423.226 1762.05 429.397C1747.68 435.487 1730.34 438.532 1710.04 438.532C1689.9 438.532 1672.36 435.447 1657.42 429.275C1642.56 423.104 1630.95 413.969 1622.58 401.869C1614.3 389.689 1609.96 374.626 1609.55 356.68H1660.59C1661.15 365.044 1663.55 372.027 1667.77 377.63C1672.08 383.152 1677.8 387.334 1684.95 390.176C1692.17 392.937 1700.33 394.317 1709.43 394.317C1718.36 394.317 1726.12 393.018 1732.69 390.42C1739.35 387.821 1744.51 384.208 1748.16 379.579C1751.82 374.951 1753.64 369.632 1753.64 363.623C1753.64 358.02 1751.98 353.31 1748.65 349.494C1745.4 345.677 1740.61 342.429 1734.28 339.749C1728.02 337.07 1720.35 334.634 1711.26 332.441L1684.09 325.62C1663.06 320.504 1646.46 312.506 1634.28 301.625C1622.1 290.743 1616.05 276.086 1616.13 257.653C1616.05 242.55 1620.07 229.354 1628.19 218.067C1636.39 206.78 1647.63 197.969 1661.93 191.636C1676.22 185.302 1692.46 182.135 1710.65 182.135C1729.16 182.135 1745.32 185.302 1759.13 191.636C1773.01 197.969 1783.81 206.78 1791.53 218.067C1799.24 229.354 1803.22 242.428 1803.46 257.288H1752.91ZM1964.73 435H1908.21L1994.33 185.545H2062.3L2148.29 435H2091.77L2029.29 242.55H2027.34L1964.73 435ZM1961.2 336.948H2094.7V378.118H1961.2V336.948ZM2229.23 326.838V435H2177.34V247.909H2226.79V280.918H2228.98C2233.13 270.037 2240.07 261.429 2249.81 255.096C2259.56 248.681 2271.37 245.473 2285.26 245.473C2298.25 245.473 2309.58 248.315 2319.24 253.999C2328.9 259.683 2336.42 267.804 2341.77 278.36C2347.13 288.835 2349.81 301.34 2349.81 315.876V435H2297.93V325.133C2298.01 313.683 2295.08 304.751 2289.16 298.336C2283.23 291.84 2275.07 288.592 2264.67 288.592C2257.69 288.592 2251.52 290.094 2246.16 293.098C2240.88 296.103 2236.74 300.488 2233.73 306.253C2230.81 311.937 2229.31 318.799 2229.23 326.838ZM2490.22 247.909V286.886H2377.55V247.909H2490.22ZM2403.13 203.085H2455.02V377.509C2455.02 382.299 2455.75 386.035 2457.21 388.714C2458.68 391.313 2460.71 393.14 2463.3 394.196C2465.98 395.251 2469.07 395.779 2472.56 395.779C2475 395.779 2477.43 395.576 2479.87 395.17C2482.31 394.683 2484.17 394.317 2485.47 394.074L2493.63 432.686C2491.04 433.498 2487.38 434.432 2482.67 435.487C2477.96 436.624 2472.24 437.314 2465.5 437.558C2452.99 438.045 2442.03 436.38 2432.61 432.564C2423.27 428.747 2416 422.82 2410.81 414.781C2405.61 406.741 2403.05 396.591 2403.13 384.33V203.085ZM2524.02 435V247.909H2575.91V435H2524.02ZM2550.09 223.792C2542.38 223.792 2535.76 221.234 2530.24 216.118C2524.8 210.921 2522.08 204.709 2522.08 197.482C2522.08 190.336 2524.8 184.206 2530.24 179.09C2535.76 173.893 2542.38 171.294 2550.09 171.294C2557.8 171.294 2564.38 173.893 2569.82 179.09C2575.34 184.206 2578.11 190.336 2578.11 197.482C2578.11 204.709 2575.34 210.921 2569.82 216.118C2564.38 221.234 2557.8 223.792 2550.09 223.792ZM2669.37 185.545V435H2617.48V185.545H2669.37ZM2762.82 185.545V435H2710.93V185.545H2762.82ZM2889.65 438.654C2870.4 438.654 2853.84 434.756 2839.95 426.961C2826.15 419.084 2815.51 407.96 2808.04 393.587C2800.57 379.133 2796.83 362.039 2796.83 342.307C2796.83 323.062 2800.57 306.172 2808.04 291.637C2815.51 277.101 2826.03 265.774 2839.59 257.653C2853.23 249.533 2869.23 245.473 2887.58 245.473C2899.92 245.473 2911.41 247.462 2922.05 251.441C2932.77 255.339 2942.11 261.226 2950.06 269.103C2958.1 276.98 2964.36 286.886 2968.82 298.823C2973.29 310.679 2975.52 324.564 2975.52 340.48V354.731H2817.54V322.575H2926.68C2926.68 315.104 2925.05 308.486 2921.81 302.721C2918.56 296.955 2914.05 292.449 2908.29 289.201C2902.6 285.871 2895.98 284.207 2888.43 284.207C2880.55 284.207 2873.57 286.034 2867.48 289.688C2861.47 293.261 2856.76 298.092 2853.35 304.183C2849.94 310.192 2848.2 316.891 2848.11 324.28V354.853C2848.11 364.11 2849.82 372.109 2853.23 378.848C2856.72 385.588 2861.63 390.785 2867.97 394.439C2874.3 398.093 2881.81 399.92 2890.5 399.92C2896.27 399.92 2901.55 399.108 2906.34 397.484C2911.13 395.86 2915.23 393.424 2918.64 390.176C2922.05 386.928 2924.65 382.949 2926.43 378.239L2974.42 381.406C2971.99 392.937 2966.99 403.006 2959.44 411.614C2951.97 420.14 2942.31 426.799 2930.45 431.589C2918.68 436.299 2905.08 438.654 2889.65 438.654ZM3165.05 301.259L3117.54 304.183C3116.73 300.122 3114.99 296.468 3112.31 293.22C3109.63 289.891 3106.09 287.252 3101.71 285.303C3097.41 283.273 3092.25 282.258 3086.24 282.258C3078.2 282.258 3071.42 283.963 3065.9 287.374C3060.38 290.703 3057.62 295.169 3057.62 300.772C3057.62 305.238 3059.4 309.014 3062.98 312.1C3066.55 315.185 3072.68 317.662 3081.37 319.53L3115.23 326.351C3133.42 330.086 3146.98 336.095 3155.91 344.378C3164.84 352.661 3169.31 363.542 3169.31 377.021C3169.31 389.283 3165.7 400.042 3158.47 409.299C3151.32 418.556 3141.5 425.783 3128.99 430.98C3116.57 436.096 3102.24 438.654 3086 438.654C3061.23 438.654 3041.5 433.498 3026.8 423.185C3012.18 412.791 3003.62 398.662 3001.1 380.797L3052.14 378.118C3053.68 385.669 3057.41 391.435 3063.34 395.414C3069.27 399.311 3076.86 401.26 3086.12 401.26C3095.21 401.26 3102.52 399.514 3108.04 396.023C3113.65 392.45 3116.49 387.862 3116.57 382.259C3116.49 377.549 3114.5 373.692 3110.6 370.688C3106.7 367.602 3100.69 365.247 3092.57 363.623L3060.17 357.167C3041.9 353.513 3028.3 347.179 3019.37 338.166C3010.52 329.152 3006.09 317.662 3006.09 303.695C3006.09 291.677 3009.34 281.324 3015.84 272.635C3022.42 263.947 3031.63 257.247 3043.49 252.538C3055.42 247.828 3069.39 245.473 3085.39 245.473C3109.02 245.473 3127.61 250.467 3141.17 260.455C3154.82 270.443 3162.77 284.044 3165.05 301.259Z" fill="#32176A"/>
<path d="M1195.82 608.727C1195.82 622.918 1193.25 635.181 1188.13 645.517C1183 655.853 1175.98 663.824 1167.04 669.43C1158.11 675.036 1147.9 677.839 1136.43 677.839C1124.95 677.839 1114.75 675.036 1105.81 669.43C1096.88 663.824 1089.85 655.853 1084.72 645.517C1079.6 635.181 1077.04 622.918 1077.04 608.727C1077.04 594.537 1079.6 582.274 1084.72 571.938C1089.85 561.601 1096.88 553.63 1105.81 548.024C1114.75 542.418 1124.95 539.615 1136.43 539.615C1147.9 539.615 1158.11 542.418 1167.04 548.024C1175.98 553.63 1183 561.601 1188.13 571.938C1193.25 582.274 1195.82 594.537 1195.82 608.727ZM1180.05 608.727C1180.05 597.077 1178.1 587.245 1174.2 579.23C1170.35 571.215 1165.11 565.149 1158.5 561.032C1151.93 556.915 1144.57 554.857 1136.43 554.857C1128.28 554.857 1120.9 556.915 1114.29 561.032C1107.72 565.149 1102.48 571.215 1098.59 579.23C1094.73 587.245 1092.8 597.077 1092.8 608.727C1092.8 620.377 1094.73 630.21 1098.59 638.225C1102.48 646.24 1107.72 652.306 1114.29 656.423C1120.9 660.54 1128.28 662.598 1136.43 662.598C1144.57 662.598 1151.93 660.54 1158.5 656.423C1165.11 652.306 1170.35 646.24 1174.2 638.225C1178.1 630.21 1180.05 620.377 1180.05 608.727ZM1221.11 676V575.091H1236.09V590.332H1237.14C1238.98 585.339 1242.31 581.288 1247.12 578.179C1251.94 575.069 1257.37 573.514 1263.42 573.514C1264.56 573.514 1265.98 573.536 1267.69 573.58C1269.39 573.624 1270.69 573.689 1271.56 573.777V589.544C1271.04 589.413 1269.83 589.216 1267.95 588.953C1266.11 588.646 1264.16 588.493 1262.1 588.493C1257.2 588.493 1252.82 589.522 1248.96 591.581C1245.15 593.595 1242.13 596.398 1239.9 599.99C1237.71 603.537 1236.61 607.589 1236.61 612.143V676H1221.11ZM1327.6 715.943C1320.11 715.943 1313.67 714.98 1308.29 713.053C1302.9 711.169 1298.41 708.673 1294.82 705.563C1291.27 702.497 1288.45 699.213 1286.34 695.709L1298.7 687.037C1300.1 688.876 1301.87 690.979 1304.02 693.344C1306.16 695.753 1309.1 697.833 1312.82 699.585C1316.59 701.381 1321.51 702.278 1327.6 702.278C1335.75 702.278 1342.47 700.308 1347.77 696.366C1353.07 692.424 1355.72 686.249 1355.72 677.839V657.342H1354.41C1353.27 659.182 1351.65 661.459 1349.54 664.175C1347.49 666.846 1344.51 669.233 1340.61 671.336C1336.76 673.394 1331.54 674.423 1324.97 674.423C1316.83 674.423 1309.51 672.496 1303.03 668.642C1296.59 664.788 1291.49 659.182 1287.72 651.824C1284 644.466 1282.14 635.531 1282.14 625.02C1282.14 614.684 1283.96 605.683 1287.59 598.019C1291.23 590.31 1296.29 584.354 1302.77 580.149C1309.25 575.901 1316.74 573.777 1325.24 573.777C1331.81 573.777 1337.02 574.872 1340.87 577.062C1344.77 579.208 1347.75 581.661 1349.81 584.42C1351.91 587.135 1353.53 589.369 1354.67 591.121H1356.25V575.091H1371.22V678.891C1371.22 687.562 1369.25 694.614 1365.31 700.045C1361.41 705.519 1356.16 709.527 1349.54 712.067C1342.97 714.651 1335.66 715.943 1327.6 715.943ZM1327.08 660.496C1333.3 660.496 1338.55 659.072 1342.84 656.225C1347.14 653.379 1350.4 649.284 1352.63 643.94C1354.87 638.597 1355.98 632.203 1355.98 624.757C1355.98 617.487 1354.89 611.07 1352.7 605.508C1350.51 599.946 1347.27 595.588 1342.97 592.435C1338.68 589.281 1333.38 587.705 1327.08 587.705C1320.51 587.705 1315.03 589.369 1310.65 592.697C1306.32 596.026 1303.05 600.493 1300.86 606.099C1298.72 611.705 1297.64 617.925 1297.64 624.757C1297.64 631.765 1298.74 637.962 1300.93 643.349C1303.16 648.692 1306.45 652.897 1310.78 655.963C1315.16 658.985 1320.59 660.496 1327.08 660.496ZM1429.3 678.365C1422.9 678.365 1417.1 677.161 1411.89 674.752C1406.68 672.299 1402.54 668.773 1399.47 664.175C1396.41 659.532 1394.87 653.926 1394.87 647.357C1394.87 641.575 1396.01 636.889 1398.29 633.298C1400.57 629.662 1403.61 626.816 1407.42 624.757C1411.23 622.699 1415.44 621.166 1420.04 620.158C1424.68 619.107 1429.34 618.275 1434.03 617.662C1440.16 616.874 1445.13 616.282 1448.94 615.888C1452.8 615.45 1455.6 614.728 1457.35 613.72C1459.15 612.713 1460.04 610.961 1460.04 608.464V607.939C1460.04 601.457 1458.27 596.42 1454.72 592.829C1451.22 589.237 1445.9 587.442 1438.76 587.442C1431.36 587.442 1425.55 589.062 1421.35 592.303C1417.15 595.544 1414.19 599.004 1412.48 602.683L1397.76 597.428C1400.39 591.296 1403.9 586.522 1408.28 583.106C1412.7 579.646 1417.52 577.237 1422.73 575.879C1427.99 574.478 1433.15 573.777 1438.23 573.777C1441.47 573.777 1445.2 574.171 1449.4 574.96C1453.65 575.704 1457.75 577.259 1461.69 579.624C1465.67 581.989 1468.98 585.558 1471.61 590.332C1474.24 595.106 1475.55 601.501 1475.55 609.516V676H1460.04V662.335H1459.26C1458.21 664.525 1456.45 666.868 1454 669.365C1451.55 671.861 1448.29 673.985 1444.21 675.737C1440.14 677.489 1435.17 678.365 1429.3 678.365ZM1431.66 664.438C1437.8 664.438 1442.96 663.233 1447.17 660.824C1451.42 658.415 1454.61 655.306 1456.76 651.495C1458.95 647.685 1460.04 643.678 1460.04 639.473V625.283C1459.39 626.071 1457.94 626.794 1455.71 627.451C1453.52 628.064 1450.98 628.611 1448.09 629.093C1445.24 629.531 1442.46 629.925 1439.74 630.276C1437.07 630.582 1434.91 630.845 1433.24 631.064C1429.21 631.589 1425.44 632.444 1421.94 633.626C1418.48 634.765 1415.68 636.495 1413.53 638.816C1411.43 641.094 1410.38 644.203 1410.38 648.145C1410.38 653.532 1412.37 657.605 1416.36 660.364C1420.39 663.08 1425.49 664.438 1431.66 664.438ZM1519.35 615.297V676H1503.85V575.091H1518.83V590.858H1520.14C1522.51 585.734 1526.1 581.617 1530.91 578.507C1535.73 575.354 1541.95 573.777 1549.57 573.777C1556.4 573.777 1562.38 575.179 1567.51 577.982C1572.63 580.741 1576.62 584.945 1579.46 590.595C1582.31 596.201 1583.73 603.296 1583.73 611.881V676H1568.23V612.932C1568.23 605.004 1566.17 598.829 1562.05 594.406C1557.94 589.938 1552.29 587.705 1545.1 587.705C1540.16 587.705 1535.73 588.778 1531.83 590.924C1527.98 593.07 1524.94 596.201 1522.7 600.318C1520.47 604.435 1519.35 609.428 1519.35 615.297ZM1612.07 676V575.091H1627.57V676H1612.07ZM1619.95 558.273C1616.93 558.273 1614.32 557.243 1612.13 555.185C1609.98 553.127 1608.91 550.652 1608.91 547.761C1608.91 544.871 1609.98 542.396 1612.13 540.338C1614.32 538.279 1616.93 537.25 1619.95 537.25C1622.97 537.25 1625.55 538.279 1627.7 540.338C1629.89 542.396 1630.99 544.871 1630.99 547.761C1630.99 550.652 1629.89 553.127 1627.7 555.185C1625.55 557.243 1622.97 558.273 1619.95 558.273ZM1727.44 597.69L1713.52 601.632C1712.64 599.311 1711.35 597.055 1709.64 594.865C1707.98 592.632 1705.7 590.792 1702.81 589.347C1699.92 587.902 1696.22 587.179 1691.71 587.179C1685.53 587.179 1680.38 588.602 1676.27 591.449C1672.19 594.252 1670.16 597.822 1670.16 602.158C1670.16 606.012 1671.56 609.056 1674.36 611.289C1677.16 613.523 1681.54 615.384 1687.5 616.874L1702.48 620.553C1711.5 622.742 1718.22 626.093 1722.65 630.604C1727.07 635.071 1729.28 640.831 1729.28 647.882C1729.28 653.663 1727.62 658.831 1724.29 663.386C1721.01 667.941 1716.41 671.533 1710.49 674.161C1704.58 676.788 1697.71 678.102 1689.87 678.102C1679.57 678.102 1671.05 675.869 1664.31 671.401C1657.57 666.934 1653.3 660.408 1651.5 651.824L1666.22 648.145C1667.62 653.576 1670.27 657.649 1674.16 660.364C1678.11 663.08 1683.25 664.438 1689.6 664.438C1696.83 664.438 1702.57 662.905 1706.82 659.839C1711.11 656.729 1713.25 653.006 1713.25 648.67C1713.25 645.167 1712.03 642.232 1709.57 639.867C1707.12 637.458 1703.36 635.663 1698.27 634.48L1681.46 630.538C1672.22 628.348 1665.43 624.954 1661.09 620.355C1656.8 615.713 1654.65 609.91 1654.65 602.946C1654.65 597.252 1656.25 592.216 1659.45 587.836C1662.69 583.456 1667.09 580.018 1672.65 577.522C1678.26 575.025 1684.61 573.777 1691.71 573.777C1701.69 573.777 1709.53 575.967 1715.22 580.347C1720.96 584.726 1725.04 590.508 1727.44 597.69ZM1752.62 676V575.091H1767.6V590.858H1768.91C1771.02 585.471 1774.41 581.288 1779.1 578.31C1783.78 575.288 1789.41 573.777 1795.98 573.777C1802.64 573.777 1808.18 575.288 1812.6 578.31C1817.07 581.288 1820.55 585.471 1823.05 590.858H1824.1C1826.68 585.646 1830.56 581.507 1835.73 578.441C1840.9 575.332 1847.09 573.777 1854.32 573.777C1863.34 573.777 1870.72 576.602 1876.46 582.252C1882.2 587.858 1885.07 596.595 1885.07 608.464V676H1869.56V608.464C1869.56 601.019 1867.52 595.698 1863.45 592.5C1859.38 589.303 1854.58 587.705 1849.06 587.705C1841.97 587.705 1836.47 589.851 1832.57 594.143C1828.68 598.391 1826.73 603.778 1826.73 610.304V676H1810.96V606.888C1810.96 601.15 1809.1 596.53 1805.38 593.026C1801.65 589.478 1796.86 587.705 1790.99 587.705C1786.96 587.705 1783.19 588.778 1779.69 590.924C1776.23 593.07 1773.43 596.048 1771.28 599.858C1769.18 603.625 1768.13 607.983 1768.13 612.932V676H1752.62ZM1955.72 678.102C1946 678.102 1937.61 675.956 1930.56 671.664C1923.55 667.328 1918.14 661.284 1914.33 653.532C1910.57 645.736 1908.68 636.67 1908.68 626.334C1908.68 615.998 1910.57 606.888 1914.33 599.004C1918.14 591.077 1923.44 584.902 1930.23 580.478C1937.06 576.011 1945.03 573.777 1954.14 573.777C1959.4 573.777 1964.59 574.653 1969.71 576.405C1974.84 578.157 1979.5 581.004 1983.71 584.945C1987.91 588.843 1991.26 594.011 1993.76 600.45C1996.26 606.888 1997.5 614.815 1997.5 624.232V630.801H1919.72V617.399H1981.74C1981.74 611.705 1980.6 606.625 1978.32 602.158C1976.09 597.69 1972.89 594.165 1968.73 591.581C1964.61 588.997 1959.75 587.705 1954.14 587.705C1947.97 587.705 1942.63 589.237 1938.11 592.303C1933.65 595.325 1930.21 599.267 1927.8 604.129C1925.39 608.99 1924.19 614.202 1924.19 619.764V628.699C1924.19 636.32 1925.5 642.78 1928.13 648.079C1930.8 653.335 1934.5 657.342 1939.23 660.102C1943.96 662.817 1949.46 664.175 1955.72 664.175C1959.79 664.175 1963.47 663.605 1966.76 662.467C1970.09 661.284 1972.96 659.532 1975.36 657.211C1977.77 654.846 1979.63 651.911 1980.95 648.408L1995.93 652.612C1994.35 657.693 1991.7 662.16 1987.98 666.014C1984.26 669.825 1979.66 672.803 1974.18 674.949C1968.71 677.051 1962.55 678.102 1955.72 678.102ZM2116.74 676H2075.22V541.455H2118.58C2131.63 541.455 2142.8 544.148 2152.09 549.535C2161.37 554.878 2168.49 562.565 2173.44 572.594C2178.39 582.58 2180.86 594.537 2180.86 608.464C2180.86 622.48 2178.37 634.546 2173.37 644.663C2168.38 654.736 2161.11 662.489 2151.56 667.919C2142.01 673.306 2130.41 676 2116.74 676ZM2091.51 661.547H2115.69C2126.82 661.547 2136.03 659.401 2143.35 655.109C2150.66 650.817 2156.12 644.707 2159.71 636.779C2163.3 628.852 2165.09 619.414 2165.09 608.464C2165.09 597.603 2163.32 588.252 2159.77 580.412C2156.23 572.529 2150.93 566.485 2143.87 562.28C2136.82 558.032 2128.04 555.908 2117.53 555.908H2091.51V661.547ZM2248.4 678.102C2238.67 678.102 2230.29 675.956 2223.24 671.664C2216.23 667.328 2210.82 661.284 2207.01 653.532C2203.24 645.736 2201.36 636.67 2201.36 626.334C2201.36 615.998 2203.24 606.888 2207.01 599.004C2210.82 591.077 2216.12 584.902 2222.91 580.478C2229.74 576.011 2237.71 573.777 2246.82 573.777C2252.08 573.777 2257.27 574.653 2262.39 576.405C2267.51 578.157 2272.18 581.004 2276.38 584.945C2280.59 588.843 2283.94 594.011 2286.44 600.45C2288.93 606.888 2290.18 614.815 2290.18 624.232V630.801H2212.4V617.399H2274.41C2274.41 611.705 2273.27 606.625 2271 602.158C2268.76 597.69 2265.57 594.165 2261.4 591.581C2257.29 588.997 2252.43 587.705 2246.82 587.705C2240.64 587.705 2235.3 589.237 2230.79 592.303C2226.32 595.325 2222.89 599.267 2220.48 604.129C2218.07 608.99 2216.86 614.202 2216.86 619.764V628.699C2216.86 636.32 2218.18 642.78 2220.8 648.079C2223.48 653.335 2227.18 657.342 2231.91 660.102C2236.64 662.817 2242.13 664.175 2248.4 664.175C2252.47 664.175 2256.15 663.605 2259.43 662.467C2262.76 661.284 2265.63 659.532 2268.04 657.211C2270.45 654.846 2272.31 651.911 2273.62 648.408L2288.6 652.612C2287.03 657.693 2284.38 662.16 2280.65 666.014C2276.93 669.825 2272.33 672.803 2266.86 674.949C2261.38 677.051 2255.23 678.102 2248.4 678.102ZM2410.73 575.091V588.23H2356.34V575.091H2410.73ZM2372.63 676V561.163C2372.63 555.382 2373.99 550.564 2376.7 546.71C2379.42 542.856 2382.94 539.965 2387.28 538.038C2391.61 536.111 2396.19 535.148 2401.01 535.148C2404.82 535.148 2407.93 535.454 2410.34 536.067C2412.75 536.681 2414.54 537.25 2415.72 537.776L2411.26 551.178C2410.47 550.915 2409.37 550.586 2407.97 550.192C2406.61 549.798 2404.82 549.601 2402.59 549.601C2397.46 549.601 2393.76 550.893 2391.48 553.477C2389.25 556.061 2388.13 559.849 2388.13 564.842V676H2372.63ZM2469.3 678.102C2460.19 678.102 2452.2 675.934 2445.32 671.598C2438.49 667.262 2433.15 661.196 2429.29 653.401C2425.48 645.605 2423.58 636.495 2423.58 626.071C2423.58 615.56 2425.48 606.384 2429.29 598.544C2433.15 590.705 2438.49 584.617 2445.32 580.281C2452.2 575.945 2460.19 573.777 2469.3 573.777C2478.41 573.777 2486.38 575.945 2493.21 580.281C2500.09 584.617 2505.43 590.705 2509.24 598.544C2513.1 606.384 2515.02 615.56 2515.02 626.071C2515.02 636.495 2513.1 645.605 2509.24 653.401C2505.43 661.196 2500.09 667.262 2493.21 671.598C2486.38 675.934 2478.41 678.102 2469.3 678.102ZM2469.3 664.175C2476.22 664.175 2481.91 662.401 2486.38 658.853C2490.85 655.306 2494.15 650.641 2496.3 644.86C2498.45 639.079 2499.52 632.816 2499.52 626.071C2499.52 619.326 2498.45 613.041 2496.3 607.216C2494.15 601.391 2490.85 596.683 2486.38 593.092C2481.91 589.5 2476.22 587.705 2469.3 587.705C2462.38 587.705 2456.69 589.5 2452.22 593.092C2447.75 596.683 2444.44 601.391 2442.3 607.216C2440.15 613.041 2439.08 619.326 2439.08 626.071C2439.08 632.816 2440.15 639.079 2442.3 644.86C2444.44 650.641 2447.75 655.306 2452.22 658.853C2456.69 662.401 2462.38 664.175 2469.3 664.175ZM2538.69 676V575.091H2553.67V590.332H2554.72C2556.56 585.339 2559.89 581.288 2564.71 578.179C2569.52 575.069 2574.96 573.514 2581 573.514C2582.14 573.514 2583.56 573.536 2585.27 573.58C2586.98 573.624 2588.27 573.689 2589.15 573.777V589.544C2588.62 589.413 2587.42 589.216 2585.53 588.953C2583.69 588.646 2581.74 588.493 2579.69 588.493C2574.78 588.493 2570.4 589.522 2566.55 591.581C2562.74 593.595 2559.71 596.398 2557.48 599.99C2555.29 603.537 2554.2 607.589 2554.2 612.143V676H2538.69ZM2607.52 676V575.091H2622.5V590.858H2623.82C2625.92 585.471 2629.31 581.288 2634 578.31C2638.69 575.288 2644.31 573.777 2650.88 573.777C2657.54 573.777 2663.08 575.288 2667.5 578.31C2671.97 581.288 2675.45 585.471 2677.95 590.858H2679C2681.59 585.646 2685.46 581.507 2690.63 578.441C2695.8 575.332 2702 573.777 2709.22 573.777C2718.24 573.777 2725.62 576.602 2731.36 582.252C2737.1 587.858 2739.97 596.595 2739.97 608.464V676H2724.46V608.464C2724.46 601.019 2722.43 595.698 2718.35 592.5C2714.28 589.303 2709.48 587.705 2703.97 587.705C2696.87 587.705 2691.37 589.851 2687.48 594.143C2683.58 598.391 2681.63 603.778 2681.63 610.304V676H2665.86V606.888C2665.86 601.15 2664 596.53 2660.28 593.026C2656.56 589.478 2651.76 587.705 2645.89 587.705C2641.86 587.705 2638.09 588.778 2634.59 590.924C2631.13 593.07 2628.33 596.048 2626.18 599.858C2624.08 603.625 2623.03 607.983 2623.03 612.932V676H2607.52ZM2798.01 678.365C2791.62 678.365 2785.81 677.161 2780.6 674.752C2775.39 672.299 2771.25 668.773 2768.18 664.175C2765.12 659.532 2763.59 653.926 2763.59 647.357C2763.59 641.575 2764.72 636.889 2767 633.298C2769.28 629.662 2772.32 626.816 2776.13 624.757C2779.94 622.699 2784.15 621.166 2788.75 620.158C2793.39 619.107 2798.05 618.275 2802.74 617.662C2808.87 616.874 2813.84 616.282 2817.65 615.888C2821.51 615.45 2824.31 614.728 2826.06 613.72C2827.86 612.713 2828.76 610.961 2828.76 608.464V607.939C2828.76 601.457 2826.98 596.42 2823.43 592.829C2819.93 589.237 2814.61 587.442 2807.47 587.442C2800.07 587.442 2794.27 589.062 2790.06 592.303C2785.86 595.544 2782.9 599.004 2781.19 602.683L2766.48 597.428C2769.1 591.296 2772.61 586.522 2776.99 583.106C2781.41 579.646 2786.23 577.237 2791.44 575.879C2796.7 574.478 2801.86 573.777 2806.94 573.777C2810.19 573.777 2813.91 574.171 2818.11 574.96C2822.36 575.704 2826.46 577.259 2830.4 579.624C2834.38 581.989 2837.69 585.558 2840.32 590.332C2842.95 595.106 2844.26 601.501 2844.26 609.516V676H2828.76V662.335H2827.97C2826.92 664.525 2825.16 666.868 2822.71 669.365C2820.26 671.861 2817 673.985 2812.92 675.737C2808.85 677.489 2803.88 678.365 2798.01 678.365ZM2800.38 664.438C2806.51 664.438 2811.67 663.233 2815.88 660.824C2820.13 658.415 2823.32 655.306 2825.47 651.495C2827.66 647.685 2828.76 643.678 2828.76 639.473V625.283C2828.1 626.071 2826.65 626.794 2824.42 627.451C2822.23 628.064 2819.69 628.611 2816.8 629.093C2813.95 629.531 2811.17 629.925 2808.46 630.276C2805.78 630.582 2803.62 630.845 2801.95 631.064C2797.92 631.589 2794.16 632.444 2790.65 633.626C2787.19 634.765 2784.39 636.495 2782.24 638.816C2780.14 641.094 2779.09 644.203 2779.09 648.145C2779.09 653.532 2781.08 657.605 2785.07 660.364C2789.1 663.08 2794.2 664.438 2800.38 664.438ZM2916.44 575.091V588.23H2864.15V575.091H2916.44ZM2879.39 550.915H2894.9V647.094C2894.9 651.473 2895.53 654.758 2896.8 656.948C2898.11 659.094 2899.78 660.54 2901.79 661.284C2903.85 661.985 2906.02 662.335 2908.3 662.335C2910.01 662.335 2911.41 662.248 2912.5 662.072C2913.6 661.853 2914.47 661.678 2915.13 661.547L2918.28 675.474C2917.23 675.869 2915.76 676.263 2913.88 676.657C2912 677.095 2909.61 677.314 2906.72 677.314C2902.34 677.314 2898.05 676.372 2893.84 674.489C2889.68 672.606 2886.22 669.737 2883.46 665.883C2880.75 662.029 2879.39 657.167 2879.39 651.298V550.915ZM2939.77 676V575.091H2955.27V676H2939.77ZM2947.65 558.273C2944.63 558.273 2942.02 557.243 2939.83 555.185C2937.69 553.127 2936.61 550.652 2936.61 547.761C2936.61 544.871 2937.69 542.396 2939.83 540.338C2942.02 538.279 2944.63 537.25 2947.65 537.25C2950.67 537.25 2953.26 538.279 2955.4 540.338C2957.59 542.396 2958.69 544.871 2958.69 547.761C2958.69 550.652 2957.59 553.127 2955.4 555.185C2953.26 557.243 2950.67 558.273 2947.65 558.273ZM3024.66 678.102C3015.55 678.102 3007.56 675.934 3000.68 671.598C2993.85 667.262 2988.51 661.196 2984.65 653.401C2980.84 645.605 2978.94 636.495 2978.94 626.071C2978.94 615.56 2980.84 606.384 2984.65 598.544C2988.51 590.705 2993.85 584.617 3000.68 580.281C3007.56 575.945 3015.55 573.777 3024.66 573.777C3033.77 573.777 3041.74 575.945 3048.57 580.281C3055.45 584.617 3060.79 590.705 3064.6 598.544C3068.46 606.384 3070.39 615.56 3070.39 626.071C3070.39 636.495 3068.46 645.605 3064.6 653.401C3060.79 661.196 3055.45 667.262 3048.57 671.598C3041.74 675.934 3033.77 678.102 3024.66 678.102ZM3024.66 664.175C3031.58 664.175 3037.27 662.401 3041.74 658.853C3046.21 655.306 3049.52 650.641 3051.66 644.86C3053.81 639.079 3054.88 632.816 3054.88 626.071C3054.88 619.326 3053.81 613.041 3051.66 607.216C3049.52 601.391 3046.21 596.683 3041.74 593.092C3037.27 589.5 3031.58 587.705 3024.66 587.705C3017.74 587.705 3012.05 589.5 3007.58 593.092C3003.11 596.683 2999.81 601.391 2997.66 607.216C2995.51 613.041 2994.44 619.326 2994.44 626.071C2994.44 632.816 2995.51 639.079 2997.66 644.86C2999.81 650.641 3003.11 655.306 3007.58 658.853C3012.05 662.401 3017.74 664.175 3024.66 664.175ZM3109.56 615.297V676H3094.05V575.091H3109.03V590.858H3110.35C3112.71 585.734 3116.3 581.617 3121.12 578.507C3125.94 575.354 3132.16 573.777 3139.78 573.777C3146.61 573.777 3152.59 575.179 3157.71 577.982C3162.84 580.741 3166.82 584.945 3169.67 590.595C3172.52 596.201 3173.94 603.296 3173.94 611.881V676H3158.43V612.932C3158.43 605.004 3156.38 598.829 3152.26 594.406C3148.14 589.938 3142.49 587.705 3135.31 587.705C3130.36 587.705 3125.94 588.778 3122.04 590.924C3118.18 593.07 3115.14 596.201 3112.91 600.318C3110.67 604.435 3109.56 609.428 3109.56 615.297Z" fill="#32176A"/>
</svg>
