<svg width="1172" height="457" viewBox="0 0 1172 457" fill="none" xmlns="http://www.w3.org/2000/svg">
<path d="M374.959 10.106C410.296 9.12097 446.295 10.508 481.652 9.97899C516.616 9.45599 547.735 10.089 580.692 23.428C660.08 55.56 659.554 167.524 586.387 206.02C581.027 208.847 574.889 210.805 569.135 212.854C604.788 219.657 637.778 232.428 657.218 265.268C641.935 265.47 626.272 265.301 610.959 265.304C588.294 231.997 541.289 221.182 503.206 220.399C498.85 220.309 489.173 220.962 485.922 218.838C485.401 216.556 485.387 217.685 486.138 215.335C487.951 213.333 492.94 213.419 495.579 213.554C509.264 214.258 521.491 209.887 535.029 208.009C546.295 204.011 558.248 196.487 566.765 188.203C600.791 155.112 603.221 87.764 569.044 53.891C540.921 26.018 500.356 30.016 464.18 30.1L464.1 265.285L423.866 265.314L423.968 79.497C423.968 57.632 426.515 38.763 406.57 24.538C397.697 18.21 392.847 16.95 381.975 16.775C379.385 16.733 376.454 16.482 374.554 14.582C373.954 12.112 374.144 12.87 374.959 10.106Z" fill="black"/>
<path d="M0.909901 10.103C23.3999 9.42596 50.0685 9.79796 72.8645 9.97296C118.315 10.32 168.575 5.86897 210.581 25.509C233.827 36.667 253.639 56.2369 261.318 81.395C278.837 138.785 252.508 193.502 196.265 212.863C199.922 213.678 203.589 214.277 207.212 215.097C239.838 222.487 265.329 237.219 283.712 265.275L237.376 265.34C214.737 230.972 164.091 220.5 125.226 220.312C121.298 220.293 115.98 221.163 112.675 218.805C111.863 216.834 111.994 217.865 112.554 215.585C116.067 212.13 126.677 214.048 131.93 213.309C141.658 211.94 151.146 209.911 160.793 208.115C164.273 207.341 167.654 205.629 170.928 204.147C225.012 179.61 236.615 95.7109 196.01 54.5879C167.692 25.9089 127.124 30.024 90.2815 30.128C89.4445 53.971 90.3025 83.8239 90.2985 108.105L90.3005 265.295L50.3275 265.323L50.3395 85.367C50.3465 74.624 50.9265 61.181 49.7475 50.647C47.7245 32.561 27.6535 15.489 9.4446 16.703C6.0734 16.928 2.6525 17.063 0.285496 14.703C-0.280304 12.887 0.290101 11.931 0.909901 10.103Z" fill="black"/>
<path d="M938.393 0C939.743 1.042 960.623 52.949 963.323 59.259C985.123 109.469 1006.6 159.819 1027.75 210.305C1035.38 228.431 1043.73 247.107 1050.97 265.272C1034.9 265.5 1018.4 265.321 1002.29 265.332C979.312 203.944 957.102 141.747 933.622 80.639L931.893 76.076L885.698 194.425C876.472 217.727 866.402 241.888 857.773 265.298L825.023 265.31L938.393 0Z" fill="black"/>
<path d="M424.083 363.275C437.439 363.163 450.795 363.155 464.151 363.253L464.106 433.835L506.783 433.904C534.062 433.924 559.713 434.798 584.491 421.004C608.353 407.719 619.856 388.688 627.395 363.284C643.473 363.179 659.551 363.156 675.628 363.213C670.676 382.622 664.548 396.086 651.338 411.532C627.892 437.633 597.162 450.288 562.801 454.843C555.732 455.776 548.614 456.287 541.484 456.373C498.694 457.311 421.459 456.256 375.428 456C374.764 455.997 374.506 455.074 374.126 454.336C374.268 453.254 374.643 451.093 375.551 450.955C390.174 448.733 398.426 449.78 409.875 438.706C424.395 424.662 424.113 409.855 424.021 390.955C423.902 381.729 423.923 372.501 424.083 363.275Z" fill="black"/>
<path d="M253.542 363.223L302.363 363.208C297.519 383.61 290.928 396.56 277.129 412.414C265.098 425.777 249.934 435.917 233.464 443.023C217.898 449.738 201.053 453.658 184.221 455.402C168.826 456.997 4.0375 457.376 1.1212 455.906C0.338201 455.511 0.2995 454.818 0 454.06C0.1521 453.052 0.505003 451.093 1.4539 450.927C17.1617 448.167 24.1369 450.716 37.0505 437.95C51.2555 423.907 50.4305 409.677 50.3505 391.269C50.2595 381.933 50.2755 372.597 50.3975 363.262C63.6765 363.146 76.9565 363.135 90.2355 363.228L90.3535 433.856L133.112 433.922C160.393 433.918 185.871 434.895 210.727 421.076C234.766 407.711 246.214 388.9 253.542 363.223Z" fill="black"/>
<path d="M1039 363.266L1088.68 363.145C1097.19 383.907 1105.89 409.566 1119.58 427.376C1128.8 438.518 1142.37 446.876 1156.62 449.523C1161.79 450.483 1168.49 448.514 1171.06 452.655C1170.67 458.848 1143.95 456.494 1138.25 456.433C1124.76 456.435 1029.89 457.552 1026.59 455.517C1025.57 453.365 1025.74 454.465 1026.05 452.094C1029.6 448.358 1035.44 451.003 1040.93 448.871C1047.78 446.244 1053.32 441.028 1056.35 434.352C1061.88 421.999 1056.13 409.01 1051.7 397.327C1047.4 385.998 1043.17 374.642 1039 363.266Z" fill="black"/>
<path d="M783.659 363.283C795.474 363.186 807.288 363.187 819.102 363.285C813.666 380.17 803.409 399.209 799.55 416.845C797.925 424.272 799.38 433.651 803.927 439.543C812.033 450.049 817.425 448.932 828.979 450.2C830.982 450.419 831.441 451.125 832.324 452.428C832.381 454.988 832.744 453.898 831.417 455.879C829.052 456.91 779.148 456.443 772.334 456.454C763.988 456.449 707.435 457.295 703.934 455.536C702.833 453.686 703.099 454.683 703.282 452.402C706.4 448.612 715.595 450.146 721.028 448.711C759.515 438.543 770.648 396.094 783.659 363.283Z" fill="black"/>
<path d="M718.881 293.703C723.861 293.446 728.991 294.304 733.318 296.886C737.901 299.571 741.162 304.038 742.322 309.221C745.532 323.304 736.313 332.201 723.187 334.506C717.832 334.777 712.654 333.998 708.055 331.089C703.61 328.283 700.499 323.786 699.441 318.636C696.391 304.332 705.7 295.91 718.881 293.703ZM724.892 332.003C743.472 323.469 739.995 294.197 716.978 296.074C712.207 298.276 707.846 301.484 706.371 306.663C702.087 321.711 709.115 333.407 724.892 332.003Z" fill="black"/>
<path d="M631.437 293.706C636.779 293.581 642.133 294.427 646.64 297.457C651.012 300.395 653.985 305.002 654.862 310.195C657.315 323.951 648.419 332.374 635.628 334.518C629.991 334.751 624.782 333.888 620.018 330.679C615.527 327.699 612.491 322.972 611.649 317.648C609.387 303.747 618.725 295.775 631.437 293.706ZM637.304 332.073C656.21 324.256 652.372 293.79 629.348 296.07C610.667 304.388 613.844 333.785 637.304 332.073Z" fill="black"/>
<path d="M526.021 294.652C528.771 294.615 536.788 294.198 538.836 295.088C534.973 296.739 535.425 299.071 535.37 302.731C535.316 306.335 535.377 309.96 535.403 313.565L557.883 313.678C557.832 308.908 558.39 303.153 557.768 298.417C557.531 296.612 555.916 296.008 554.328 294.953C555.717 294.005 564.848 294.707 566.718 294.981L566.078 296.056C564.524 296.796 564.889 296.604 563.529 297.667C562.946 302.107 562.431 329.142 564.409 331.911C565.791 332.504 566.588 332.767 567.68 333.842C563.388 333.894 558.294 334.087 554.09 333.693C554.941 332.421 555.927 332.031 557.296 331.135C558.366 328.23 557.954 319.158 557.945 315.616L535.414 315.629C535.585 320.684 533.827 328.216 537.583 332.001C538.457 332.881 538.374 332.69 539.003 333.829C536.661 334.233 528.712 333.954 526.192 333.676C526.677 333.313 529.105 331.513 529.242 330.811C530.953 322.024 530.331 307.373 529.529 298.119C529.364 296.213 527.135 295.309 526.021 294.652Z" fill="black"/>
<path d="M462.478 293.711C468.818 293.318 473.668 294.813 479.341 297.24C479.347 300.397 479.531 303.729 479.653 306.898C477.839 303.228 475.604 299.027 471.68 297.386C448.694 287.775 439.489 322.643 459.041 331.516C463.425 333.505 468.671 332.232 472.991 330.468C478.921 326.206 479.452 323.606 481.69 316.877C481.562 320.271 481.523 323.668 481.573 327.064C472.911 334.694 462.31 337.839 451.779 331.374C447.169 328.574 443.925 323.993 442.812 318.716C439.648 304.145 449.003 295.752 462.478 293.711Z" fill="black"/>
<path d="M386.086 293.663C389.164 293.586 393.064 294.228 396.186 294.622C396.206 297.164 396.379 299.364 395.789 301.83C388.707 287.464 369.965 301.051 389.54 311.936C403.393 319.638 401.973 334.571 383.685 334.516C373.52 332.947 374.904 331.211 375.409 321.637C376.526 324.968 377.813 329.811 381.445 331.592C385.029 333.349 391.943 332.391 393.437 328.057C394.661 322.932 389.609 318.98 385.828 316.05C381.437 312.648 373.129 305.974 376.001 299.402C377.277 296.483 383.035 294.331 386.086 293.663Z" fill="black"/>
<path d="M799.299 294.489L800.077 294.769L797.643 296.132C795.08 299.734 796.244 325.317 796.327 331.578C808.889 331.669 810.304 332.43 817.253 321.909L813.263 333.909C808.386 333.924 791.009 334.369 787.296 333.586C788.604 332.342 791.378 331.674 791.156 329.035C790.315 319.017 792.137 307.446 790.753 297.634C789.602 295.916 789.251 295.912 787.437 295.143C788.269 294.49 797.45 294.533 799.299 294.489Z" fill="black"/>
</svg>
