<svg width="865" height="221" viewBox="0 0 865 221" fill="none" xmlns="http://www.w3.org/2000/svg">
<path d="M34.6837 0.223142C36.3909 0.107663 38.0995 0.034177 39.8107 0.00268265C46.0781 -0.0918006 59.1128 2.31488 63.6336 6.36979C101.128 40.0137 140.059 75.5039 176.209 110.51C176.386 120.63 176.041 131.619 175.911 141.804C137.184 107.616 97.4035 69.478 59.4816 34.1124C53.9386 29.0668 48.2276 23.0645 39.8264 23.2009C23.2683 23.47 25.1973 37.3288 25.0923 49.1851C24.612 103.705 25.8771 158.458 24.8679 212.955C16.6151 205.497 8.44754 197.945 0.370539 190.297C-0.551985 137.045 0.529304 82.3671 0.605416 29.0222C0.627724 13.2868 20.8537 2.97234 34.6837 0.223142Z" fill="#1E1E1E"/>
<path d="M233.049 72.355C234.71 76.133 233.661 182.382 233.796 196.684C227.394 208.766 215.563 217.467 202.009 219.702C190.317 221.665 178.331 218.774 168.818 211.698C157.791 203.507 58.5301 110.961 57.7887 105.995L57.9252 76.8114C100.658 114.918 141.618 155.857 184.579 193.725C191.002 199.388 208.035 196.918 208.698 187.034C209.387 176.776 209.115 165.997 209.105 155.62L209.013 91.1991L233.049 72.355Z" fill="#1E1E1E"/>
<path d="M232.383 2.56201L233.151 2.8914C234.333 5.92011 233.782 42.2528 233.768 47.9087L210.583 65.8225C209.648 65.7765 210.184 65.913 209.139 65.0101C208.958 50.5424 208.946 36.0747 209.102 21.6069C214.313 16.5245 226.294 7.45283 232.383 2.56201Z" fill="#1E1E1E"/>
<path d="M307.017 19.6112C312.845 19.4308 318.912 19.545 324.763 19.5813L382.448 91.7106L382.504 19.5805C388.702 19.5325 394.902 19.5207 401.101 19.5444C401.197 27.9065 401.558 121.296 400.674 122.85L384.195 122.803C376.196 113.484 367.896 102.699 360.153 93.0567L325.418 49.7609C325.606 73.5052 325.896 99.1807 325.393 122.82L307 122.822L307.017 19.6112Z" fill="black"/>
<path d="M446.137 19.4819L515.244 19.5105L515.322 36.5146L453.271 36.4868L453.276 61.9442L509.16 61.9241L509.157 78.8676L453.354 78.8836C452.8 84.7624 453.262 99.3063 453.279 105.738L516.136 105.762L516.081 122.836L434.466 122.814L434.477 19.608L446.137 19.4819Z" fill="black"/>
<path d="M539.882 19.6613C547.774 19.5763 555.643 19.3758 563.535 19.6271C566.572 23.7915 571.106 29.0582 574.424 33.1459L594.577 57.8743C604.959 45.6731 615.524 32.1223 625.671 19.616C633.505 19.506 641.341 19.4976 649.176 19.5917C634.704 37.006 620.664 54.9391 606.334 72.5129C610.682 78.3694 616.461 85.0595 621.131 90.7287L644.854 119.712C645.858 120.914 646.501 121.321 646.786 122.708C641.436 123.183 629.642 122.821 623.813 122.823C614.122 110.729 604.339 98.7078 594.465 86.7628L565.36 122.816L542.069 122.779C554.99 106.69 569.436 88.2816 582.781 72.7218C578.378 66.7984 572.459 59.8729 567.755 54.0463L539.882 19.6613Z" fill="black"/>
<path d="M680.391 19.4753C684.295 19.4091 688.664 19.5414 692.606 19.5748L692.645 59.7043C692.609 71.9508 690.71 91.3038 699.92 99.7885C713.861 112.633 741.356 108 744.514 87.019C745.923 77.6583 745.415 69.4675 745.41 60.4529L745.386 19.554C751.617 19.4655 757.849 19.4649 764.079 19.5533C764.166 27.2587 764.085 35.1131 764.085 42.8318L764.107 67.76C764.104 84.2802 764.515 99.1764 752.075 111.875C736.042 128.241 701.943 127.89 685.913 111.917C681.047 107.038 677.551 100.965 675.778 94.3066C673.09 84.1868 673.803 68.2621 673.809 57.1981L673.851 19.6188L680.391 19.4753Z" fill="black"/>
<path d="M820.792 18.1586C837.293 17.0869 849.57 21.4477 862.701 31.1677C859.392 35.995 856.02 40.7728 852.579 45.5005C844.143 39.8452 836.838 35.1266 826.26 34.6837C818.184 34.2582 807.619 37.1684 807.807 47.0751C807.979 56.1307 817.776 58.497 824.794 60.4998C842.796 65.637 865.09 69.6822 865 93.1209C864.937 108.416 856.606 118.138 842.019 122.161C835.977 123.835 830.694 123.92 824.408 123.835C809.32 123.422 796.113 117.03 784.648 107.587L795.778 93.3326L796.149 93.6641C806.41 102.67 816.821 107.934 830.761 107.042C839.209 106.502 847.912 101.96 846.289 92.3354C844.359 80.9141 824.088 79.733 815.233 76.3208C809.359 74.0575 804.104 72.88 799.06 68.8487C787.035 60.3236 786.674 41.5019 795.376 30.4428C801.608 22.5242 810.899 19.2847 820.792 18.1586Z" fill="black"/>
<path d="M308 211.97V152.03H345.207V158.299H315.103V178.479H342.67V184.748H315.103V211.97H308Z" fill="black"/>
<path d="M390.838 213C387.23 213 384.129 212.313 381.536 210.939C378.943 209.508 376.801 207.476 375.109 204.842C373.418 202.209 372.178 198.974 371.389 195.139C370.599 191.303 370.205 186.923 370.205 182C370.205 177.134 370.599 172.783 371.389 168.947C372.178 165.054 373.418 161.791 375.109 159.158C376.801 156.524 378.943 154.521 381.536 153.147C384.129 151.716 387.23 151 390.838 151C394.446 151 397.546 151.716 400.14 153.147C402.733 154.521 404.875 156.524 406.566 159.158C408.258 161.791 409.498 165.054 410.287 168.947C411.076 172.783 411.471 177.134 411.471 182C411.471 186.923 411.076 191.303 410.287 195.139C409.498 198.974 408.258 202.209 406.566 204.842C404.875 207.476 402.733 209.508 400.14 210.939C397.546 212.313 394.446 213 390.838 213ZM390.838 206.731C393.206 206.731 395.207 206.273 396.842 205.357C398.477 204.384 399.83 203.039 400.901 201.321C401.972 199.604 402.733 197.543 403.184 195.139C403.691 192.677 403.945 189.929 403.945 186.895V177.105C403.945 174.128 403.691 171.409 403.184 168.947C402.733 166.486 401.972 164.396 400.901 162.679C399.83 160.961 398.477 159.645 396.842 158.729C395.207 157.755 393.206 157.269 390.838 157.269C388.47 157.269 386.469 157.755 384.834 158.729C383.199 159.645 381.846 160.961 380.775 162.679C379.704 164.396 378.915 166.486 378.407 168.947C377.956 171.409 377.731 174.128 377.731 177.105V186.895C377.731 189.929 377.956 192.677 378.407 195.139C378.915 197.543 379.704 199.604 380.775 201.321C381.846 203.039 383.199 204.384 384.834 205.357C386.469 206.273 388.47 206.731 390.838 206.731Z" fill="black"/>
<path d="M445.263 211.97H438.16V152.03H459.638C465.107 152.03 469.278 153.548 472.154 156.582C475.029 159.616 476.466 163.852 476.466 169.291C476.466 174.157 475.226 178.05 472.745 180.97C470.265 183.889 466.657 185.578 461.922 186.036L476.974 211.97H469.025L454.649 186.38H445.263V211.97ZM459.469 180.283C462.457 180.283 464.768 179.538 466.403 178.05C468.095 176.504 468.94 174.329 468.94 171.524V167.058C468.94 164.253 468.095 162.106 466.403 160.618C464.768 159.072 462.457 158.299 459.469 158.299H445.263V180.283H459.469Z" fill="black"/>
<path d="M534.105 162.936H533.428L520.997 193.765L508.567 162.936H507.89V211.97H501.379V152.03H510.512L520.913 178.479H521.42L531.821 152.03H540.616V211.97H534.105V162.936Z" fill="black"/>
<path d="M601.383 211.97L596.394 194.881H575.676L570.687 211.97H563.33L581.426 152.03H590.813L608.909 211.97H601.383ZM586.415 159.673H585.654L577.367 188.612H594.703L586.415 159.673Z" fill="black"/>
<path d="M654.709 158.299V211.97H647.605V158.299H627.902V152.03H674.412V158.299H654.709Z" fill="black"/>
<path d="M697.971 211.97V206.216H712.685V157.784H697.971V152.03H734.502V157.784H719.788V206.216H734.502V211.97H697.971Z" fill="black"/>
<path d="M781.317 213C777.709 213 774.608 212.313 772.015 210.939C769.421 209.508 767.279 207.476 765.588 204.842C763.897 202.209 762.656 198.974 761.867 195.139C761.078 191.303 760.683 186.923 760.683 182C760.683 177.134 761.078 172.783 761.867 168.947C762.656 165.054 763.897 161.791 765.588 159.158C767.279 156.524 769.421 154.521 772.015 153.147C774.608 151.716 777.709 151 781.317 151C784.925 151 788.025 151.716 790.618 153.147C793.212 154.521 795.354 156.524 797.045 159.158C798.736 161.791 799.977 165.054 800.766 168.947C801.555 172.783 801.95 177.134 801.95 182C801.95 186.923 801.555 191.303 800.766 195.139C799.977 198.974 798.736 202.209 797.045 204.842C795.354 207.476 793.212 209.508 790.618 210.939C788.025 212.313 784.925 213 781.317 213ZM781.317 206.731C783.684 206.731 785.686 206.273 787.32 205.357C788.955 204.384 790.308 203.039 791.379 201.321C792.451 199.604 793.212 197.543 793.663 195.139C794.17 192.677 794.424 189.929 794.424 186.895V177.105C794.424 174.128 794.17 171.409 793.663 168.947C793.212 166.486 792.451 164.396 791.379 162.679C790.308 160.961 788.955 159.645 787.32 158.729C785.686 157.755 783.684 157.269 781.317 157.269C778.949 157.269 776.948 157.755 775.313 158.729C773.678 159.645 772.325 160.961 771.254 162.679C770.183 164.396 769.393 166.486 768.886 168.947C768.435 171.409 768.209 174.128 768.209 177.105V186.895C768.209 189.929 768.435 192.677 768.886 195.139C769.393 197.543 770.183 199.604 771.254 201.321C772.325 203.039 773.678 204.384 775.313 205.357C776.948 206.273 778.949 206.731 781.317 206.731Z" fill="black"/>
<path d="M834.811 161.476H834.219V211.97H827.793V152.03H837.856L857.981 202.524H858.573V152.03H865V211.97H854.937L834.811 161.476Z" fill="black"/>
</svg>
