<svg preserveAspectRatio="xMidYMid meet" viewBox="16.176 29.461 333.816 329.785" xmlns="http://www.w3.org/2000/svg">
  <g>
    <path d="M244.766 352.879c38.257 0 83.816-15.477 83.816-61.035 0-82.906-182.648-73.797-182.648-180.395 0-54.21 45.105-81.988 95.207-81.988 34.625 0 66.515 24.148 78.793 24.148 10.933 0 17.757-9.105 20.953-18.668-.457 25.063-2.282 50.102-2.739 75.164-12.304-43.277-53.757-75.62-98.836-75.62-35.515 0-72.425 18.214-72.425 58.292 0 84.73 183.105 76.993 183.105 186.305 0 55.125-56.035 80.164-103.855 80.164-30.973 0-57.84-19.586-85.64-19.586-9.567 0-17.759 5.453-22.782 13.219V261.78c15.472 46.016 54.668 91.098 107.05 91.098m0 0" fill="#010101"/>
    <path d="M16.176 323.883c15.855-4.82 26.41-15.906 26.41-32.574V98.489c0-17.024-9.82-28.489-26.031-33.692h47.543l151.675 208.73V97.371c0-16.668-10.554-27.754-26.41-32.574h56.598c-15.856 4.82-25.649 15.906-25.649 32.574v226.512L46.392 84.433V291.31c0 17.023 11.312 27.753 27.168 32.574Zm0 0" fill="#010101"/>
  </g>
</svg>
