<svg width="434" height="298" viewBox="0 0 434 298" fill="none" xmlns="http://www.w3.org/2000/svg">
<path d="M136.687 0.477292C143.594 -0.321708 160.635 0.122269 168.398 0.129269L229.054 0.186276L433.824 0.160275L433.814 41.5103L170.119 41.4833C142.759 41.4873 122.412 38.8003 100.712 58.7783C88.167 70.3193 80.718 86.3713 80.006 103.402C79.37 123.351 86.788 138.827 100.261 152.965C121.416 172.689 140.8 170.651 167.538 170.644L243.632 170.565C254.49 170.546 281.222 168.777 289.318 173.891C294.275 177.078 297.651 182.214 298.61 188.028C299.556 193.392 298.279 198.909 295.073 203.312C291.709 207.931 285.714 211.498 280.163 211.666C263.807 212.162 246.415 211.952 230.07 211.963L173.873 211.979C135.872 211.973 108.843 213.67 77.399 187.766C55.611 169.814 41.884 143.912 39.264 115.802C36.538 87.8423 45.157 59.9593 63.186 38.4143C82.162 15.5303 107.351 3.23029 136.687 0.477292Z" fill="#0A1A31"/>
<path d="M150.544 86.2873C153.023 86.1523 155.504 86.0573 157.985 86.0013C183.481 85.6023 209.379 85.6453 234.893 85.9323C283.618 86.4803 324.749 78.6403 363.031 116.22C383.394 136.266 394.868 163.639 394.887 192.213C395.106 239.858 360.909 282.872 314.793 294.438C298.072 298.631 277.986 297.599 260.667 297.605L25.848 297.582L0 297.619L0.00500488 256.264L195.077 256.267L257.386 256.349C276.431 256.378 298.304 258.306 315.841 250.303C331.483 243.128 343.639 230.039 349.638 213.91C359.881 185.772 349.491 154.086 324.367 137.706C302.162 123.229 273.295 126.814 247.684 126.853L180.375 127.041C171.935 127.063 154.484 128.026 147.77 125.183C128.525 117.032 131.162 93.2123 150.544 86.2873Z" fill="#0A1A31"/>
</svg>
