<svg width="913" height="219" viewBox="0 0 913 219" fill="none" xmlns="http://www.w3.org/2000/svg">
<path d="M256.572 154.767L256.618 121.097C256.626 115.797 250.969 112.412 246.302 114.923L175.548 152.993C173.483 154.104 170.999 154.107 168.931 153.001L97.9206 115.029C93.3005 112.558 87.7057 115.853 87.6462 121.091C87.5184 132.341 87.4643 143.591 87.4839 154.842C87.4884 157.411 88.9049 159.769 91.1686 160.985L168.708 202.626C170.777 203.738 173.266 203.737 175.335 202.625L252.887 160.922C255.154 159.704 256.569 157.34 256.572 154.767Z" fill="url(#paint0_linear_4_98)"/>
<path d="M63.877 75.0284C66.7576 75.0285 69.0724 77.3983 68.9967 80.278C68.62 94.6003 67.6192 133.254 67.4239 144.544C67.3977 146.058 68.0716 147.463 69.1857 148.488C76.3204 155.051 77.4725 160 71.0749 167.411C69.9189 168.75 69.3888 170.549 69.8035 172.268L77.5177 204.26C77.9891 206.215 77.2709 208.266 75.6784 209.495C72.0033 212.33 68.2742 215.181 64.6421 218.046C63.5052 218.942 61.9117 218.985 60.7363 218.14C60.0006 217.61 59.2609 217.077 58.5191 216.542C54.9862 213.993 51.3932 211.402 47.8333 208.983C46.5658 208.122 45.9692 206.556 46.3654 205.076L54.9372 173.049C55.4269 171.22 54.8151 169.318 53.5267 167.93C52.7869 167.133 52.2024 166.356 51.1496 164.888C50.055 162.797 49.4979 160.967 49.377 159.318C49.3619 159.112 49.3537 158.909 49.352 158.708C49.3183 154.761 51.8438 151.855 55.3993 148.81C56.5713 147.806 57.2776 146.355 57.2777 144.812V80.1439C57.2777 77.3188 59.5682 75.0285 62.3932 75.0284H63.877Z" fill="url(#paint1_linear_4_98)"/>
<path d="M174.509 48.5674L220.833 73.9124C224.993 76.1884 227.073 77.3263 227.602 78.9142C227.893 79.7863 227.894 80.729 227.605 81.6018C227.08 83.1908 225.003 84.3337 220.848 86.6195L174.542 112.098C173.143 112.868 172.443 113.253 171.694 113.367C171.27 113.432 170.838 113.432 170.414 113.368C169.665 113.255 168.965 112.871 167.564 112.102L121.23 86.6907C117.072 84.4101 114.993 83.2698 114.465 81.6812C114.175 80.8088 114.175 79.8659 114.465 78.9934C114.992 77.4048 117.071 76.2641 121.229 73.9829L167.545 48.5715C168.942 47.8049 169.641 47.4216 170.388 47.3079C170.811 47.2435 171.242 47.2433 171.665 47.3072C172.412 47.4199 173.111 47.8024 174.509 48.5674Z" fill="url(#paint2_linear_4_98)" fill-opacity="0.9"/>
<path fill-rule="evenodd" clip-rule="evenodd" d="M164.476 1.3037C167.732 -0.432565 171.638 -0.434618 174.896 1.29787L286.121 60.4476C293.95 64.6111 293.962 75.8256 286.143 80.0073L174.966 139.465C171.705 141.209 167.789 141.211 164.525 139.472L53.277 80.1672C45.4514 75.9954 45.4504 64.7796 53.2754 60.6066L164.476 1.3037ZM170.561 34.8289C170.23 34.7799 169.892 34.7803 169.561 34.8297C168.975 34.917 168.426 35.2107 167.328 35.7989L113.538 64.6048C110.123 66.4338 108.415 67.3485 107.985 68.6313C107.749 69.3353 107.748 70.0972 107.985 70.8011C108.415 72.0839 110.123 72.9983 113.539 74.8268L167.351 103.634C168.452 104.223 169.003 104.517 169.59 104.604C169.922 104.654 170.261 104.653 170.593 104.604C171.18 104.516 171.73 104.22 172.83 103.629L226.608 74.7485C230.021 72.9157 231.728 71.9994 232.157 70.7162C232.392 70.012 232.39 69.2501 232.153 68.5464C231.721 67.2642 230.013 66.3513 226.596 64.5265L172.796 35.7955C171.697 35.2087 171.147 34.9154 170.561 34.8289Z" fill="url(#paint3_linear_4_98)"/>
<path d="M375.974 101.939C365.921 101.939 358.4 99.2134 353.412 93.7614C348.463 88.3094 345.988 80.5567 345.988 70.5034V55.8874C345.988 45.9114 348.463 38.2167 353.412 32.8034C358.4 27.3901 365.901 24.6834 375.916 24.6834C378.777 24.6834 381.387 24.9154 383.746 25.3794C386.105 25.8434 388.231 26.4621 390.126 27.2354C392.059 27.9701 393.741 28.7821 395.172 29.6714L396.332 43.0694C394.051 41.6774 391.479 40.4787 388.618 39.4734C385.757 38.4681 382.412 37.9654 378.584 37.9654C372.861 37.9654 368.589 39.5701 365.766 42.7794C362.943 45.9887 361.532 50.5127 361.532 56.3514V69.9234C361.532 75.7234 362.963 80.2474 365.824 83.4954C368.685 86.7047 373.113 88.3094 379.106 88.3094C382.857 88.3094 386.182 87.8067 389.082 86.8014C391.982 85.7961 394.592 84.5587 396.912 83.0894L395.752 96.7194C394.36 97.6087 392.678 98.4594 390.706 99.2714C388.734 100.045 386.511 100.683 384.036 101.185C381.6 101.688 378.913 101.939 375.974 101.939ZM430.77 101.939C421.954 101.939 415.265 99.6774 410.702 95.1534C406.178 90.6294 403.916 84.1914 403.916 75.8394V68.1254C403.916 59.7347 406.178 53.2774 410.702 48.7534C415.265 44.1907 421.954 41.9094 430.77 41.9094C439.548 41.9094 446.198 44.1907 450.722 48.7534C455.246 53.2774 457.508 59.7347 457.508 68.1254V75.8394C457.508 84.1914 455.246 90.6294 450.722 95.1534C446.237 99.6774 439.586 101.939 430.77 101.939ZM430.77 90.0494C434.637 90.0494 437.576 88.8894 439.586 86.5694C441.636 84.2494 442.66 80.9241 442.66 76.5934V67.3714C442.66 62.9634 441.636 59.5994 439.586 57.2794C437.576 54.9207 434.637 53.7414 430.77 53.7414C426.865 53.7414 423.888 54.9207 421.838 57.2794C419.828 59.5994 418.822 62.9634 418.822 67.3714V76.5934C418.822 80.9241 419.828 84.2494 421.838 86.5694C423.888 88.8894 426.865 90.0494 430.77 90.0494ZM482.635 43.4754V77.6954C482.635 80.0541 482.944 82.1227 483.563 83.9014C484.22 85.6414 485.284 86.9947 486.753 87.9614C488.261 88.8894 490.272 89.3534 492.785 89.3534C495.066 89.3534 497.038 88.9474 498.701 88.1354C500.364 87.3234 501.736 86.2407 502.819 84.8874C503.902 83.4954 504.694 81.9487 505.197 80.2474L507.517 88.3094H504.733C504.114 90.7841 503.07 93.0461 501.601 95.0954C500.17 97.1061 498.198 98.7107 495.685 99.9094C493.21 101.108 490.098 101.707 486.347 101.707C482.016 101.707 478.478 100.876 475.733 99.2134C473.026 97.5507 471.016 95.0954 469.701 91.8474C468.425 88.5994 467.787 84.5974 467.787 79.8414V43.4754H482.635ZM519.697 43.4754V100.373H504.907L505.429 86.5694L504.849 85.3514V43.4754H519.697ZM547.153 67.3134L543.383 57.3954H546.979C548.023 52.7941 549.918 49.1787 552.663 46.5494C555.408 43.9201 559.217 42.6054 564.089 42.6054C565.094 42.6054 566.003 42.6827 566.815 42.8374C567.627 42.9534 568.362 43.1081 569.019 43.3014L569.831 58.1494C568.98 57.8787 567.994 57.6854 566.873 57.5694C565.752 57.4147 564.572 57.3374 563.335 57.3374C559.391 57.3374 556.027 58.2074 553.243 59.9474C550.498 61.6874 548.468 64.1427 547.153 67.3134ZM532.711 100.373V43.4754H546.863L546.225 60.9334L547.559 61.4554V100.373H532.711ZM609.268 100.373L609.79 86.4534L609.384 85.1774V67.3714L609.326 64.8194C609.326 61.1074 608.301 58.3814 606.252 56.6414C604.241 54.9014 600.935 54.0314 596.334 54.0314C592.429 54.0314 588.755 54.5534 585.314 55.5974C581.911 56.6027 578.76 57.7821 575.86 59.1354L577.136 47.3034C578.837 46.4141 580.771 45.5827 582.936 44.8094C585.14 43.9974 587.595 43.3401 590.302 42.8374C593.009 42.3347 595.928 42.0834 599.06 42.0834C603.7 42.0834 607.625 42.6441 610.834 43.7654C614.043 44.8481 616.595 46.4141 618.49 48.4634C620.423 50.5127 621.815 52.9681 622.666 55.8294C623.517 58.6521 623.942 61.7841 623.942 65.2254V100.373H609.268ZM590.65 101.707C585.005 101.707 580.693 100.296 577.716 97.4734C574.777 94.6507 573.308 90.6294 573.308 85.4094V83.7854C573.308 78.2561 575.009 74.1767 578.412 71.5474C581.815 68.8794 587.209 67.0427 594.594 66.0374L610.718 63.8334L611.588 73.4034L596.74 75.5494C593.492 75.9747 591.172 76.7481 589.78 77.8694C588.427 78.9907 587.75 80.6341 587.75 82.7994V83.3794C587.75 85.5061 588.407 87.1687 589.722 88.3674C591.075 89.5274 593.183 90.1074 596.044 90.1074C598.596 90.1074 600.781 89.7014 602.598 88.8894C604.415 88.0774 605.904 87.0141 607.064 85.6994C608.263 84.3461 609.113 82.8381 609.616 81.1754L611.704 88.5414H609.152C608.533 90.9774 607.528 93.2007 606.136 95.2114C604.783 97.1834 602.869 98.7687 600.394 99.9674C597.919 101.127 594.671 101.707 590.65 101.707ZM659.925 82.9154C651.302 82.9154 644.767 81.2141 640.321 77.8114C635.874 74.3701 633.651 69.5561 633.651 63.3694V62.4994C633.651 58.4007 634.54 54.9207 636.319 52.0594C638.097 49.1594 640.881 46.8974 644.671 45.2734C648.46 43.6494 653.371 42.7214 659.403 42.4894L689.389 41.2714V52.1754L673.961 51.5954V52.2334C676.397 52.7361 678.407 53.5481 679.993 54.6694C681.617 55.7521 682.835 57.1634 683.647 58.9034C684.459 60.6047 684.865 62.6734 684.865 65.1094V65.6314C684.865 71.2381 682.796 75.5301 678.659 78.5074C674.521 81.4461 668.277 82.9154 659.925 82.9154ZM659.229 111.219H660.853C663.869 111.219 666.363 111.007 668.335 110.581C670.307 110.195 671.776 109.576 672.743 108.725C673.748 107.913 674.251 106.85 674.251 105.535V105.361C674.251 103.737 673.613 102.539 672.337 101.765C671.099 101.031 669.089 100.528 666.305 100.257L649.659 98.6334L653.081 98.4594C651.65 98.7301 650.374 99.1361 649.253 99.6774C648.17 100.18 647.319 100.857 646.701 101.707C646.082 102.558 645.773 103.602 645.773 104.839V104.955C645.773 106.386 646.275 107.565 647.281 108.493C648.286 109.46 649.794 110.156 651.805 110.581C653.815 111.007 656.29 111.219 659.229 111.219ZM658.417 122.413C652.926 122.413 648.228 121.949 644.323 121.021C640.417 120.132 637.421 118.701 635.333 116.729C633.283 114.757 632.259 112.147 632.259 108.899V108.667C632.259 106.463 632.742 104.607 633.709 103.099C634.675 101.591 636.048 100.393 637.827 99.5034C639.605 98.6141 641.655 98.0534 643.975 97.8214V97.2414C641.036 96.6614 638.813 95.7141 637.305 94.3994C635.835 93.0461 635.101 91.2094 635.101 88.8894V88.8314C635.101 87.2074 635.468 85.8347 636.203 84.7134C636.937 83.5921 638.02 82.7027 639.451 82.0454C640.92 81.3881 642.718 81.0014 644.845 80.8854V79.2034L657.431 82.3354L653.371 82.2194C651.592 82.2581 650.355 82.5094 649.659 82.9734C648.963 83.3987 648.615 84.0174 648.615 84.8294V84.8874C648.615 85.8927 649.156 86.6274 650.239 87.0914C651.321 87.5167 653.119 87.8841 655.633 88.1934L669.263 89.7014C675.643 90.4361 680.341 92.0021 683.357 94.3994C686.411 96.7967 687.939 100.489 687.939 105.477V105.767C687.939 109.595 686.856 112.727 684.691 115.163C682.525 117.638 679.393 119.455 675.295 120.615C671.235 121.814 666.305 122.413 660.505 122.413H658.417ZM659.519 72.5914C662.109 72.5914 664.255 72.2241 665.957 71.4894C667.697 70.7547 668.992 69.6721 669.843 68.2414C670.732 66.8107 671.177 65.0707 671.177 63.0214V62.3834C671.177 60.3341 670.751 58.6134 669.901 57.2214C669.05 55.7907 667.774 54.7274 666.073 54.0314C664.371 53.2967 662.225 52.9294 659.635 52.9294H659.461C656.715 52.9294 654.473 53.3161 652.733 54.0894C650.993 54.8241 649.717 55.9067 648.905 57.3374C648.093 58.7294 647.687 60.4114 647.687 62.3834V63.0214C647.687 65.0707 648.112 66.8107 648.963 68.2414C649.852 69.6721 651.167 70.7547 652.907 71.4894C654.685 72.2241 656.889 72.5914 659.519 72.5914ZM722.687 101.765C712.943 101.765 705.693 99.5227 700.937 95.0374C696.181 90.5521 693.803 84.0561 693.803 75.5494V68.1254C693.803 59.6961 696.026 53.2194 700.473 48.6954C704.92 44.1714 711.377 41.9094 719.845 41.9094C725.568 41.9094 730.343 42.9147 734.171 44.9254C737.999 46.9361 740.86 49.7974 742.755 53.5094C744.688 57.1827 745.655 61.5907 745.655 66.7334V68.7634C745.655 70.1554 745.578 71.5861 745.423 73.0554C745.307 74.4861 745.133 75.8394 744.901 77.1154H731.445C731.561 74.9887 731.619 72.9781 731.619 71.0834C731.658 69.1501 731.677 67.4101 731.677 65.8634C731.677 63.1954 731.252 60.9334 730.401 59.0774C729.55 57.1827 728.255 55.7521 726.515 54.7854C724.775 53.8187 722.552 53.3354 719.845 53.3354C715.862 53.3354 712.924 54.4374 711.029 56.6414C709.134 58.8454 708.187 61.9774 708.187 66.0374V71.3154L708.245 72.9974V77.4634C708.245 79.2421 708.516 80.8854 709.057 82.3934C709.637 83.9014 710.584 85.2161 711.899 86.3374C713.214 87.4201 714.954 88.2707 717.119 88.8894C719.323 89.5081 722.068 89.8174 725.355 89.8174C728.912 89.8174 732.296 89.4307 735.505 88.6574C738.753 87.8454 741.827 86.7627 744.727 85.4094L743.451 97.1254C740.86 98.5561 737.806 99.6774 734.287 100.489C730.807 101.34 726.94 101.765 722.687 101.765ZM701.691 77.1154V67.2554H741.885V77.1154H701.691ZM348.366 200.373V126.249H363.562V200.373H348.366ZM357.066 172.765V160.005H395.462V172.765H357.066ZM352.774 139.067V126.249H396.332V139.067H352.774ZM431.224 201.939C422.408 201.939 415.718 199.677 411.156 195.153C406.632 190.629 404.37 184.191 404.37 175.839V168.125C404.37 159.735 406.632 153.277 411.156 148.753C415.718 144.191 422.408 141.909 431.224 141.909C440.001 141.909 446.652 144.191 451.176 148.753C455.7 153.277 457.962 159.735 457.962 168.125V175.839C457.962 184.191 455.7 190.629 451.176 195.153C446.69 199.677 440.04 201.939 431.224 201.939ZM431.224 190.049C435.09 190.049 438.029 188.889 440.04 186.569C442.089 184.249 443.114 180.924 443.114 176.593V167.371C443.114 162.963 442.089 159.599 440.04 157.279C438.029 154.921 435.09 153.741 431.224 153.741C427.318 153.741 424.341 154.921 422.292 157.279C420.281 159.599 419.276 162.963 419.276 167.371V176.593C419.276 180.924 420.281 184.249 422.292 186.569C424.341 188.889 427.318 190.049 431.224 190.049ZM483.262 167.313L479.492 157.395H483.088C484.132 152.794 486.027 149.179 488.772 146.549C491.518 143.92 495.326 142.605 500.198 142.605C501.204 142.605 502.112 142.683 502.924 142.837C503.736 142.953 504.471 143.108 505.128 143.301L505.94 158.149C505.09 157.879 504.104 157.685 502.982 157.569C501.861 157.415 500.682 157.337 499.444 157.337C495.5 157.337 492.136 158.207 489.352 159.947C486.607 161.687 484.577 164.143 483.262 167.313ZM468.82 200.373V143.475H482.972L482.334 160.933L483.668 161.455V200.373H468.82ZM583.915 200.373V165.805C583.915 163.485 583.625 161.494 583.045 159.831C582.465 158.13 581.498 156.815 580.145 155.887C578.83 154.959 577.032 154.495 574.751 154.495C572.663 154.495 570.846 154.901 569.299 155.713C567.752 156.525 566.496 157.627 565.529 159.019C564.562 160.373 563.847 161.919 563.383 163.659L561.759 155.539H563.267C563.886 153.103 564.891 150.88 566.283 148.869C567.675 146.82 569.57 145.196 571.967 143.997C574.403 142.799 577.477 142.199 581.189 142.199C585.326 142.199 588.671 143.011 591.223 144.635C593.814 146.221 595.728 148.618 596.965 151.827C598.202 154.998 598.821 158.942 598.821 163.659V200.373H583.915ZM513.793 200.373V143.475H528.641L528.061 157.917L528.641 158.555V200.373H513.793ZM548.883 200.373V165.805C548.883 163.485 548.593 161.494 548.013 159.831C547.433 158.13 546.466 156.815 545.113 155.887C543.798 154.959 542 154.495 539.719 154.495C537.592 154.495 535.756 154.901 534.209 155.713C532.701 156.525 531.444 157.627 530.439 159.019C529.472 160.373 528.757 161.919 528.293 163.659L525.973 155.539H528.757C529.337 153.026 530.304 150.764 531.657 148.753C533.049 146.743 534.924 145.157 537.283 143.997C539.642 142.799 542.58 142.199 546.099 142.199C551.396 142.199 555.379 143.553 558.047 146.259C560.754 148.966 562.455 152.91 563.151 158.091C563.306 158.865 563.441 159.773 563.557 160.817C563.673 161.823 563.731 162.77 563.731 163.659V200.373H548.883ZM644.159 200.373L644.681 186.453L644.275 185.177V167.371L644.217 164.819C644.217 161.107 643.192 158.381 641.143 156.641C639.132 154.901 635.826 154.031 631.225 154.031C627.319 154.031 623.646 154.553 620.205 155.597C616.802 156.603 613.651 157.782 610.751 159.135L612.027 147.303C613.728 146.414 615.661 145.583 617.827 144.809C620.031 143.997 622.486 143.34 625.193 142.837C627.899 142.335 630.819 142.083 633.951 142.083C638.591 142.083 642.515 142.644 645.725 143.765C648.934 144.848 651.486 146.414 653.381 148.463C655.314 150.513 656.706 152.968 657.557 155.829C658.407 158.652 658.833 161.784 658.833 165.225V200.373H644.159ZM625.541 201.707C619.895 201.707 615.584 200.296 612.607 197.473C609.668 194.651 608.199 190.629 608.199 185.409V183.785C608.199 178.256 609.9 174.177 613.303 171.547C616.705 168.879 622.099 167.043 629.485 166.037L645.609 163.833L646.479 173.403L631.631 175.549C628.383 175.975 626.063 176.748 624.671 177.869C623.317 178.991 622.641 180.634 622.641 182.799V183.379C622.641 185.506 623.298 187.169 624.613 188.367C625.966 189.527 628.073 190.107 630.935 190.107C633.487 190.107 635.671 189.701 637.489 188.889C639.306 188.077 640.795 187.014 641.955 185.699C643.153 184.346 644.004 182.838 644.507 181.175L646.595 188.541H644.043C643.424 190.977 642.419 193.201 641.027 195.211C639.673 197.183 637.759 198.769 635.285 199.967C632.81 201.127 629.562 201.707 625.541 201.707ZM692.501 201.591C687.668 201.591 683.801 200.876 680.901 199.445C678.04 197.976 675.971 195.772 674.695 192.833C673.419 189.895 672.781 186.279 672.781 181.987V148.811H687.513V179.783C687.513 182.877 688.209 185.158 689.601 186.627C691.032 188.058 693.526 188.773 697.083 188.773C699.171 188.773 701.182 188.561 703.115 188.135C705.048 187.671 706.827 187.072 708.451 186.337L707.175 198.749C705.242 199.639 703.018 200.335 700.505 200.837C698.03 201.34 695.362 201.591 692.501 201.591ZM664.545 155.655V143.939H707.929L706.653 155.655H664.545ZM672.955 145.041L672.897 129.961L687.687 128.453L687.107 145.041H672.955ZM717.135 200.373V143.475H731.983V200.373H717.135ZM724.559 136.747C721.737 136.747 719.649 136.09 718.295 134.775C716.981 133.422 716.323 131.566 716.323 129.207V128.917C716.323 126.559 716.981 124.703 718.295 123.349C719.649 121.996 721.737 121.319 724.559 121.319C727.343 121.319 729.412 121.996 730.765 123.349C732.119 124.703 732.795 126.559 732.795 128.917V129.207C732.795 131.605 732.119 133.461 730.765 134.775C729.412 136.09 727.343 136.747 724.559 136.747ZM769.708 201.939C760.892 201.939 754.203 199.677 749.64 195.153C745.116 190.629 742.854 184.191 742.854 175.839V168.125C742.854 159.735 745.116 153.277 749.64 148.753C754.203 144.191 760.892 141.909 769.708 141.909C778.485 141.909 785.136 144.191 789.66 148.753C794.184 153.277 796.446 159.735 796.446 168.125V175.839C796.446 184.191 794.184 190.629 789.66 195.153C785.175 199.677 778.524 201.939 769.708 201.939ZM769.708 190.049C773.575 190.049 776.513 188.889 778.524 186.569C780.573 184.249 781.598 180.924 781.598 176.593V167.371C781.598 162.963 780.573 159.599 778.524 157.279C776.513 154.921 773.575 153.741 769.708 153.741C765.803 153.741 762.825 154.921 760.776 157.279C758.765 159.599 757.76 162.963 757.76 167.371V176.593C757.76 180.924 758.765 184.249 760.776 186.569C762.825 188.889 765.803 190.049 769.708 190.049ZM844.367 200.373V166.211C844.367 163.814 844.038 161.745 843.381 160.005C842.762 158.265 841.718 156.912 840.249 155.945C838.779 154.979 836.769 154.495 834.217 154.495C831.974 154.495 830.002 154.901 828.301 155.713C826.638 156.525 825.265 157.627 824.183 159.019C823.139 160.373 822.346 161.919 821.805 163.659L819.485 155.539H822.269C822.887 153.026 823.912 150.764 825.343 148.753C826.812 146.743 828.784 145.157 831.259 143.997C833.772 142.799 836.904 142.199 840.655 142.199C845.024 142.199 848.562 143.031 851.269 144.693C853.975 146.317 855.967 148.753 857.243 152.001C858.557 155.249 859.215 159.271 859.215 164.065V200.373H844.367ZM807.305 200.373V143.475H822.153L821.573 157.337L822.153 158.555V200.373H807.305Z" fill="#1E1E1E"/>
<defs>
<linearGradient id="paint0_linear_4_98" x1="172.057" y1="109.364" x2="172.057" y2="204.406" gradientUnits="userSpaceOnUse">
<stop stop-color="#AF5CFA"/>
<stop offset="1" stop-color="#DBB3FD"/>
</linearGradient>
<linearGradient id="paint1_linear_4_98" x1="169.122" y1="0" x2="169.122" y2="218.747" gradientUnits="userSpaceOnUse">
<stop stop-color="#B86BFF"/>
<stop offset="0.730769" stop-color="#6F1DBA"/>
</linearGradient>
<linearGradient id="paint2_linear_4_98" x1="169.122" y1="0" x2="169.122" y2="218.747" gradientUnits="userSpaceOnUse">
<stop stop-color="#B15AFF"/>
<stop offset="1" stop-color="#C08FEC"/>
</linearGradient>
<linearGradient id="paint3_linear_4_98" x1="169.122" y1="0" x2="169.122" y2="218.747" gradientUnits="userSpaceOnUse">
<stop stop-color="#B86BFF"/>
<stop offset="0.730769" stop-color="#6F1DBA"/>
</linearGradient>
</defs>
</svg>
