<svg width="246" height="219" viewBox="0 0 246 219" fill="none" xmlns="http://www.w3.org/2000/svg">
<path d="M210.328 154.767L210.374 121.097C210.381 115.797 204.725 112.412 200.057 114.923L129.304 152.993C127.239 154.104 124.755 154.107 122.687 153.001L51.6765 115.029C47.0564 112.558 41.4615 115.853 41.402 121.091C41.2742 132.341 41.2201 143.591 41.2398 154.842C41.2442 157.411 42.6607 159.769 44.9245 160.985L122.464 202.626C124.533 203.738 127.022 203.737 129.091 202.625L206.643 160.922C208.91 159.704 210.325 157.34 210.328 154.767Z" fill="url(#paint0_linear_58_3)"/>
<path d="M17.6328 75.0284C20.5135 75.0285 22.8283 77.3983 22.7526 80.278C22.3758 94.6003 21.3751 133.254 21.1797 144.544C21.1536 146.058 21.8275 147.463 22.9416 148.488C30.0762 155.051 31.2284 160 24.8308 167.411C23.6747 168.75 23.1446 170.549 23.5594 172.268L31.2735 204.26C31.745 206.215 31.0268 208.266 29.4343 209.495C25.7592 212.33 22.0301 215.181 18.398 218.046C17.261 218.942 15.6675 218.985 14.4922 218.14C13.7564 217.61 13.0168 217.077 12.2749 216.542C8.74204 213.993 5.14908 211.402 1.58918 208.983C0.321635 208.122 -0.274931 206.556 0.121287 205.076L8.69304 173.049C9.18275 171.22 8.57096 169.318 7.2826 167.93C6.54279 167.133 5.95829 166.356 4.90548 164.888C3.81084 162.797 3.25381 160.967 3.13285 159.318C3.11775 159.112 3.10959 158.909 3.10787 158.708C3.07413 154.761 5.59968 151.855 9.15514 148.81C10.3271 147.806 11.0334 146.355 11.0335 144.812V80.1439C11.0336 77.3188 13.324 75.0285 16.1491 75.0284H17.6328Z" fill="url(#paint1_linear_58_3)"/>
<path d="M128.265 48.5674L174.589 73.9124C178.749 76.1884 180.829 77.3263 181.358 78.9142C181.649 79.7863 181.65 80.729 181.361 81.6018C180.836 83.1908 178.758 84.3337 174.604 86.6195L128.298 112.098C126.898 112.868 126.198 113.253 125.45 113.367C125.026 113.432 124.594 113.432 124.17 113.368C123.421 113.255 122.721 112.871 121.32 112.102L74.9861 86.6907C70.8279 84.4101 68.7487 83.2698 68.2209 81.6812C67.931 80.8088 67.9309 79.8659 68.2207 78.9934C68.7483 77.4048 70.8272 76.2641 74.9851 73.9829L121.301 48.5715C122.698 47.8049 123.397 47.4216 124.144 47.3079C124.567 47.2435 124.997 47.2433 125.421 47.3072C126.168 47.4199 126.867 47.8024 128.265 48.5674Z" fill="url(#paint2_linear_58_3)" fill-opacity="0.9"/>
<path fill-rule="evenodd" clip-rule="evenodd" d="M118.232 1.3037C121.487 -0.432565 125.394 -0.434618 128.652 1.29787L239.877 60.4476C247.705 64.6111 247.718 75.8256 239.899 80.0073L128.722 139.465C125.461 141.209 121.544 141.211 118.281 139.472L7.03289 80.1672C-0.792717 75.9954 -0.79372 64.7796 7.03123 60.6066L118.232 1.3037ZM124.317 34.8289C123.985 34.7799 123.648 34.7803 123.317 34.8297C122.731 34.917 122.182 35.2107 121.083 35.7989L67.2941 64.6048C63.8788 66.4338 62.171 67.3485 61.7406 68.6313C61.5045 69.3353 61.5043 70.0972 61.7406 70.8011C62.1712 72.0839 63.8792 72.9983 67.295 74.8268L121.107 103.634C122.208 104.223 122.759 104.517 123.346 104.604C123.678 104.654 124.016 104.653 124.349 104.604C124.936 104.516 125.486 104.22 126.586 103.629L180.364 74.7485C183.777 72.9157 185.483 71.9994 185.912 70.7162C186.148 70.012 186.146 69.2501 185.909 68.5464C185.477 67.2642 183.769 66.3513 180.352 64.5265L126.552 35.7955C125.453 35.2087 124.903 34.9154 124.317 34.8289Z" fill="url(#paint3_linear_58_3)"/>
<defs>
<linearGradient id="paint0_linear_58_3" x1="125.813" y1="109.364" x2="125.813" y2="204.406" gradientUnits="userSpaceOnUse">
<stop stop-color="#AF5CFA"/>
<stop offset="1" stop-color="#DBB3FD"/>
</linearGradient>
<linearGradient id="paint1_linear_58_3" x1="122.878" y1="0" x2="122.878" y2="218.747" gradientUnits="userSpaceOnUse">
<stop stop-color="#B86BFF"/>
<stop offset="0.730769" stop-color="#6F1DBA"/>
</linearGradient>
<linearGradient id="paint2_linear_58_3" x1="122.878" y1="0" x2="122.878" y2="218.747" gradientUnits="userSpaceOnUse">
<stop stop-color="#B15AFF"/>
<stop offset="1" stop-color="#C08FEC"/>
</linearGradient>
<linearGradient id="paint3_linear_58_3" x1="122.878" y1="0" x2="122.878" y2="218.747" gradientUnits="userSpaceOnUse">
<stop stop-color="#B86BFF"/>
<stop offset="0.730769" stop-color="#6F1DBA"/>
</linearGradient>
</defs>
</svg>
